<?xml version="1.0" encoding="UTF-8" standalone="no"?>
<!-- Created with Inkscape (http://www.inkscape.org/) -->

<svg
   width="209.63431mm"
   height="171.56648mm"
   viewBox="0 0 209.63431 171.56648"
   version="1.1"
   id="svg370"
   inkscape:version="1.1.2 (0a00cf5339, 2022-02-04)"
   sodipodi:docname="favicon.svg"
   xmlns:inkscape="http://www.inkscape.org/namespaces/inkscape"
   xmlns:sodipodi="http://sodipodi.sourceforge.net/DTD/sodipodi-0.dtd"
   xmlns="http://www.w3.org/2000/svg"
   xmlns:svg="http://www.w3.org/2000/svg">
  <sodipodi:namedview
     id="namedview372"
     pagecolor="#ffffff"
     bordercolor="#666666"
     borderopacity="1.0"
     inkscape:pageshadow="2"
     inkscape:pageopacity="0"
     inkscape:pagecheckerboard="true"
     inkscape:document-units="mm"
     showgrid="false"
     fit-margin-top="0"
     fit-margin-left="0"
     fit-margin-right="0"
     fit-margin-bottom="0"
     inkscape:zoom="1.0403979"
     inkscape:cx="422.43453"
     inkscape:cy="344.09912"
     inkscape:window-width="1916"
     inkscape:window-height="1055"
     inkscape:window-x="0"
     inkscape:window-y="21"
     inkscape:window-maximized="1"
     inkscape:current-layer="layer1" />
  <defs
     id="defs367" />
  <g
     inkscape:label="Ebene 1"
     inkscape:groupmode="layer"
     id="layer1"
     transform="translate(-0.20695243,-62.887252)">
    <path
       style="display:inline;fill:#ff4208;stroke:none;stroke-width:0.264583;fill-opacity:1"
       d="M 0.20695243,199.52874 H 1.7944524 c 0,-8.32168 2.6341916,-16.85132 3.4395833,-25.13542 1.6639646,-17.1151 4.2375666,-34.3281 6.8349813,-51.32917 1.388798,-9.08976 0.856721,-21.17195 11.950435,-24.253557 4.112683,-1.142206 8.717227,-0.617273 12.964583,-0.617273 h 99.483335 26.45833 c 1.77959,0 7.95285,0.888471 8.20208,-1.322916 0.19844,-1.761861 -0.0728,-3.564467 -0.26458,-5.291667 -0.50059,-4.505325 -3.94944,-8.634941 -8.46667,-9.701477 -7.47024,-1.763712 -16.00702,0.215106 -23.54791,-0.308504 -17.60842,-0.212927 -36.73035,0.959858 -52.652085,-0.04418 -1.748367,-0.121444 -3.842809,0.435239 -5.55625,-0.08811 -2.36855,-0.7239 -3.750204,-3.049058 -5.11519,-4.938977 C 72.673681,72.54938 69.727016,66.974609 65.294452,64.635428 60.751027,62.237509 55.201391,63.003743 50.213202,63.003743 h -29.36875 c -5.061479,0 -10.6553,-0.684213 -15.0812496,2.204772 -5.42157705,3.539332 -5.55624997,9.207236 -5.55624997,14.993144 V 199.52874 M 189.11945,107.54184 c -4.71038,0.98134 -8.11847,5.91371 -11.37708,9.17231 -0.71914,0.71914 -3.24353,2.50746 -2.77813,3.70417 0.51356,1.32027 2.57493,2.70722 3.57188,3.70417 l 15.875,15.875 c 0.62812,0.62812 1.90738,2.49025 2.91041,2.33706 1.72429,-0.26326 4.33044,-4.02167 5.55625,-5.24748 1.86743,-1.86743 4.22513,-3.64993 5.73272,-5.82083 4.49025,-6.46616 -4.45954,-12.74974 -8.37855,-16.66875 -2.76939,-2.7694 -6.56087,-8.00391 -11.1125,-7.05565 m -94.720832,86.43065 c -2.012156,-1.00621 -4.034102,-1.82722 -5.468144,-3.70417 -4.440766,-5.81343 -0.603514,-13.03073 5.203561,-16.0954 4.505589,-2.37807 8.581755,-1.55178 13.229165,-0.57335 v -22.225 c 0,-1.57559 0.80486,-6.45186 -0.35269,-7.58481 -1.04087,-1.01865 -5.66049,0.5506 -7.055642,0.70564 -6.683904,0.74269 -13.504862,1.80287 -20.108333,3.0869 -1.8034,0.35057 -5.646473,0.0196 -6.791061,1.6756 -0.626797,0.90699 -0.352689,2.39289 -0.352689,3.43959 v 8.20208 17.99167 c 0,9.07917 -0.178329,18.15888 -10.054167,22.13689 -5.116248,2.06057 -12.634383,1.56898 -16.051477,-3.35148 -4.46352,-6.42778 1.411023,-14.69892 7.849394,-16.84522 4.232275,-1.41076 7.278952,-0.0492 11.377083,0.70564 v -34.925 -9.26042 c 0,-1.30995 -0.304271,-3.05911 0.396875,-4.23333 1.795463,-3.0062 6.156854,-2.42094 9.128125,-2.99852 9.092406,-1.76795 18.574808,-2.85777 27.781252,-3.88065 2.73923,-0.30427 8.60663,-2.58842 10.49522,0.26459 0.61543,0.92974 0.35269,2.37569 0.35269,3.43958 v 7.67292 23.54791 c 0,2.8366 -0.77919,7.57529 0.26459,10.05417 2.65324,-1.53617 4.95935,-4.69477 7.14375,-6.87917 4.71461,-4.71461 9.57818,-9.36413 14.02291,-14.2875 9.0678,-10.04437 19.26908,-19.26907 28.83959,-28.83958 3.96848,-3.96849 9.62739,-8.11424 12.43541,-12.96458 -12.98231,-1.025 -26.3652,-0.26459 -39.42291,-0.26459 H 65.559035 39.100702 c -4.281488,0 -9.031552,-0.47043 -12.435417,2.64584 -4.26085,3.90075 -3.906837,12.40816 -4.497916,17.72708 -1.739106,15.65222 -4.610894,31.17903 -6.35,46.83125 -1.375304,12.37721 -3.821906,24.64699 -5.027083,37.04167 -0.461434,4.74689 -2.8924253,10.7016 0.08811,15.08125 3.396192,4.99004 9.766035,3.96875 14.993143,3.96875 h 38.89375 11.1125 c 1.148556,0 3.494087,0.45058 4.497916,-0.1323 0.734748,-0.4265 1.145646,-2.01374 1.411023,-2.77812 0.801688,-2.30876 1.725877,-4.57544 2.557727,-6.87917 2.169848,-6.00842 4.385998,-12.03431 6.70269,-17.99166 1.173956,-3.01837 2.764896,-6.34048 3.351477,-9.525 m -7.672917,40.48125 c 2.434696,-0.19236 5.008827,-1.79891 7.14375,-2.86624 3.661304,-1.83091 7.415205,-3.54568 11.112495,-5.29166 4.94215,-2.33389 10.981,-4.20635 15.34583,-7.54063 6.38308,-4.876 12.18195,-11.83772 17.72709,-17.63897 17.4326,-17.5593 31.16546,-30.90088 48.41875,-48.15417 1.32953,-1.32953 5.49222,-4.22354 5.77664,-6.08542 0.13177,-0.86122 -0.96228,-1.37795 -1.4552,-1.89627 -1.5158,-1.59437 -4.13915,-5.11783 -6.17353,-5.90894 -1.19671,-0.4654 -2.98503,2.05899 -3.70416,2.77813 -16.73848,17.24695 -34.33158,34.59616 -51.85834,52.12292 -3.96531,3.96531 -7.83616,8.0719 -11.90625,11.90625 -0.93768,0.88344 -2.95407,3.93726 -4.23333,2.91041 -1.29275,-1.03769 -2.26616,-2.53074 -3.43958,-3.70416 -0.36328,-0.36328 -1.32292,-1.01389 -1.32292,-1.5875 0,-0.97552 2.50455,-2.76913 3.175,-3.43959 l 9.26042,-9.26041 c 19.91136,-20.00858 35.10991,-35.3745 53.975,-54.23959 0.73236,-0.73236 3.9534,-3.13425 3.57187,-4.23333 -0.68474,-1.9722 -4.20634,-4.33864 -5.68854,-5.82083 -0.50324,-0.50324 -1.29408,-1.66899 -2.11667,-1.54332 -0.79983,0.12224 -1.57877,1.27 -2.11666,1.8079 l -4.49792,4.49792 c -16.31598,16.31596 -32.63195,32.63194 -48.94792,48.94791 -4.7752,4.7752 -11.14636,9.5422 -14.993135,15.08125 -1.327944,1.91215 -1.716617,4.71699 -2.557463,6.87917 -1.858962,4.7797 -3.491441,9.68031 -5.115454,14.55208 -1.811866,5.4356 -5.379773,11.95017 -5.379773,17.72709 M 185.67987,163.5454 c -13.46253,13.46253 -26.75388,27.01846 -40.21667,40.48125 -6.4942,6.4942 -12.76191,14.2457 -20.10833,19.75565 -4.36086,3.27078 -9.77345,4.3807 -14.2875,7.23185 v 0.26459 h 44.97916 c 6.28783,0 13.80279,1.1848 18.52084,-3.96875 3.01175,-3.28957 3.23823,-8.24178 3.70416,-12.43542 2.11815,-15.3937 4.59658,-29.88464 6.61459,-44.18542 0.22807,-1.64147 1.73169,-5.85417 0.79375,-7.14375 z"
       id="path336"
       sodipodi:nodetypes="ccsccccsccccccccssccccsccccscscccccsccccscscccccscccsscscscscscscccccscsccccccccsccccscccsssccccsccccsccccscccscccc" />
  </g>
</svg>
